<svg width="64" height="64" viewBox="0 0 64 64" fill="none" xmlns="http://www.w3.org/2000/svg">
  <circle cx="32" cy="32" r="32" fill="#E3F2FD"/>
  <circle cx="32" cy="24" r="12" fill="#FDB4A6"/>
  <path d="M20 52C20 44.268 25.373 38 32 38C38.627 38 44 44.268 44 52V56H20V52Z" fill="#FDB4A6"/>
  <path d="M24 20C24 16.686 26.686 14 30 14H34C37.314 14 40 16.686 40 20V26C40 29.314 37.314 32 34 32H30C26.686 32 24 29.314 24 20Z" fill="#8D6E63"/>
  <rect x="28" y="38" width="8" height="18" fill="#FFFFFF"/>
  <rect x="20" y="52" width="24" height="4" fill="#FFFFFF"/>
  <circle cx="28" cy="22" r="1" fill="#333"/>
  <circle cx="36" cy="22" r="1" fill="#333"/>
  <path d="M30 26C30 27.105 30.895 28 32 28C33.105 28 34 27.105 34 26" stroke="#333" stroke-width="1" stroke-linecap="round"/>
  <rect x="30" y="42" width="4" height="2" fill="#2196F3"/>
</svg>